<svg width="71" height="64" viewBox="0 0 71 64" fill="none" xmlns="http://www.w3.org/2000/svg">
<path d="M15.1073 29.2932C16.1082 40.7427 31.0644 60.982 41.0919 59.8125C51.1194 58.6431 52.4035 36.4987 51.4215 25.0492C50.4207 13.5997 41.4885 5.26258 31.461 6.43205C21.4335 7.62038 14.1065 17.8438 15.1073 29.2932Z" fill="#D3E5CF"/>
<g opacity="0.8">
<path d="M8.83778 51.2302C12.1614 58.379 25.5313 60.0766 36.3708 57.417C47.2103 54.7574 64.0172 44.3831 60.6936 27.4636C59.4095 20.8806 52.7056 9.29913 30.5356 18.3531C18.2232 23.3705 4.24894 41.3463 8.83778 51.2302Z" fill="#FFDC8D"/>
</g>
<path d="M3.19141 26.0866C3.19141 38.4604 22.3777 51.9847 32.9528 51.9847C43.5279 51.9847 54.915 38.4604 54.915 26.0866C54.915 13.7129 50.4584 5.31918 34.8223 14.7126C25.3991 20.3713 3.19141 13.7129 3.19141 26.0866Z" fill="url(#paint0_linear_2042_3254)"/>
<path d="M35.672 10.148C36.9184 11.5249 41.866 10.9402 43.8488 8.50694C45.8128 6.07369 44.0754 2.69733 42.8102 1.33924C41.5639 -0.0377147 38.939 0.829954 36.975 3.2632C34.9922 5.69644 34.4068 8.77101 35.672 10.148Z" fill="#FFDC8D"/>
<path d="M7.17593 43.1194C7.78022 41.799 6.74159 37.9322 5.0609 36.8759C3.38022 35.8385 1.69953 37.9888 1.07635 39.3092C0.472061 40.6295 1.34073 42.5346 3.02142 43.5909C4.72099 44.6472 6.57163 44.4397 7.17593 43.1194Z" fill="#D3E5CF"/>
<path d="M50.0996 9.07278C49.7219 9.88386 50.5339 12.3926 51.7236 13.1282C52.8944 13.8638 53.9897 12.5435 54.3674 11.7324C54.7451 10.9213 54.103 9.65751 52.9133 8.92188C51.7425 8.18625 50.4773 8.24284 50.0996 9.07278Z" fill="#D3E5CF"/>
<path d="M33.217 62.2269L32.8582 63.321H32.405L33.5758 59.8691H34.1235L35.3132 63.321H34.8411L34.4634 62.2458L33.217 62.2269ZM34.3501 61.8686L34.0102 60.8689C33.9346 60.6425 33.878 60.435 33.8213 60.2464H33.8025C33.7458 60.4539 33.6891 60.6614 33.6325 60.8689L33.2926 61.8686H34.3501Z" fill="#192040"/>
<path d="M37.0316 59.888C37.2582 59.8503 37.5793 59.8126 37.8814 59.8126C38.3535 59.8126 38.6746 59.888 38.8823 60.0955C39.0522 60.2464 39.1467 60.4916 39.1467 60.7557C39.1467 61.2084 38.8634 61.5102 38.5046 61.6422V61.6611C38.769 61.7554 38.9389 62.0006 39.0145 62.359C39.1278 62.8494 39.2033 63.1701 39.2788 63.3021H38.8256C38.769 63.2078 38.6934 62.906 38.599 62.4722C38.4857 62.0006 38.3158 61.812 37.9003 61.812H37.4849V63.3021H37.0316V59.888ZM37.466 61.4536H37.9192C38.3913 61.4536 38.6934 61.1895 38.6934 60.7934C38.6934 60.3407 38.3724 60.1521 37.9003 60.1521C37.6926 60.1521 37.5226 60.1709 37.466 60.1898V61.4536Z" fill="#192040"/>
<path d="M41.7149 60.2087H40.6574V59.8314H43.2067V60.2087H42.1492V63.2832H41.696L41.7149 60.2087Z" fill="#192040"/>
<path d="M45.605 61.7177V62.0572H44.3398V61.7177H45.605Z" fill="#192040"/>
<path d="M47.3235 62.7174C47.5312 62.8305 47.8145 62.9437 48.1166 62.9437C48.5698 62.9437 48.8342 62.6985 48.8342 62.359C48.8342 62.0383 48.6454 61.8497 48.1733 61.6799C47.6067 61.4913 47.2668 61.1895 47.2668 60.6991C47.2668 60.1521 47.7012 59.756 48.381 59.756C48.7398 59.756 48.9853 59.8314 49.1364 59.9257L49.0231 60.2841C48.9098 60.2275 48.6831 60.1144 48.3621 60.1144C47.89 60.1144 47.7201 60.3973 47.7201 60.6425C47.7201 60.9632 47.9278 61.1141 48.3999 61.3027C48.9853 61.529 49.2874 61.812 49.2874 62.3213C49.2874 62.8494 48.8909 63.321 48.0789 63.321C47.7389 63.321 47.3801 63.2266 47.1913 63.0946L47.3235 62.7174Z" fill="#192040"/>
<path d="M51.799 60.1709H50.7415V59.7937H53.2909V60.1709H52.2334V63.2455H51.7801L51.799 60.1709Z" fill="#192040"/>
<path d="M55.3492 59.7937V61.8308C55.3492 62.6042 55.6891 62.9249 56.1613 62.9249C56.6711 62.9249 56.9922 62.5853 56.9922 61.8308V59.7937H57.4454V61.812C57.4454 62.8683 56.8977 63.3021 56.1424 63.3021C55.4437 63.3021 54.896 62.906 54.896 61.8308V59.7937H55.3492Z" fill="#192040"/>
<path d="M59.466 59.8314C59.7304 59.7937 60.0514 59.756 60.4102 59.756C61.0522 59.756 61.5055 59.9069 61.8076 60.1898C62.1098 60.4727 62.2986 60.8689 62.2986 61.4347C62.2986 62.0006 62.1286 62.4533 61.8076 62.7739C61.4866 63.0946 60.9578 63.2644 60.278 63.2832C59.957 63.2832 59.6926 63.2644 59.466 63.2455V59.8314ZM59.9192 62.8683C60.0325 62.8871 60.2025 62.8871 60.3724 62.8871C61.3166 62.8871 61.8454 62.359 61.8454 61.4159C61.8454 60.6048 61.3922 60.0766 60.448 60.0955C60.2213 60.0955 60.0514 60.1144 59.9192 60.1521V62.8683Z" fill="#192040"/>
<path d="M64.5458 59.756L64.5647 63.2078H64.1115L64.0926 59.756H64.5458Z" fill="#192040"/>
<path d="M69.5123 61.4347C69.5123 62.6231 68.7947 63.2455 67.9072 63.2644C67.0007 63.2644 66.3587 62.5665 66.3398 61.5102C66.3398 60.4162 67.0196 59.6994 67.9449 59.6994C68.908 59.6994 69.5123 60.4162 69.5123 61.4347ZM66.8308 61.5102C66.8308 62.2458 67.2273 62.906 67.9449 62.906C68.6437 62.906 69.0591 62.2458 69.0402 61.4724C69.0402 60.7934 68.6814 60.0766 67.9261 60.0766C67.2085 60.0578 66.8308 60.7368 66.8308 61.5102Z" fill="#192040"/>
<path d="M12.7279 33.9711C12.9734 35.8196 14.3519 36.857 16.8069 36.857C19.1674 36.857 20.3948 35.8762 20.3948 34.3295C20.376 30.4061 11.9347 33.4241 11.9159 28.3878C11.9159 26.2564 13.6532 24.8417 16.4103 24.8417C19.2807 24.8417 21.0558 26.2941 21.2446 28.6142H19.9794C19.8472 27.275 18.7708 26.0112 16.3914 26.0112C14.333 26.0112 13.1811 26.9166 13.2 28.3313C13.2189 32.1037 21.6412 29.1423 21.6601 34.2729C21.6601 36.4421 19.9038 38.0454 16.8069 38.0454C13.7099 38.0454 11.7837 36.6496 11.4626 33.9711H12.7279Z" fill="#192040"/>
<path d="M28.9871 25.0115V26.1432L25.418 26.1621L25.4369 33.9522C25.4369 36.1025 26.8721 36.6307 28.0051 36.6307H28.9871V37.8379H27.9863C26.2489 37.8379 24.2094 36.8948 24.2094 33.9522L24.1905 26.1621H22.2644V25.0303H24.1905L24.1717 21.3145H25.3991L25.418 25.0303L28.9871 25.0115Z" fill="#192040"/>
<path d="M41.8472 34.7633C40.6386 36.7061 38.8257 37.9699 35.9365 37.9888C32.0652 38.0076 29.2704 35.1406 29.2515 31.4058C29.2326 27.7277 32.0463 24.8229 35.7854 24.804C39.6 24.7851 42.2815 27.7088 42.2815 30.972C42.2815 31.1795 42.2626 31.387 42.2626 31.5567C42.2438 31.6322 42.2438 31.7265 42.2438 31.8208L30.5734 31.8585C30.7811 34.9897 33.1605 36.7627 35.9176 36.7627C38.4481 36.7627 39.8644 35.7442 40.8652 34.1031L41.8472 34.7633ZM30.5923 30.689L40.9974 30.6513C40.7142 27.7654 38.4669 25.9735 35.8043 25.9735C33.236 25.9923 30.8566 27.822 30.5923 30.689Z" fill="#192040"/>
<path d="M54.4618 29.9157L54.4807 37.7436H53.2343L53.2154 30.0666C53.2154 27.4824 51.7991 25.9546 49.3631 25.9546C46.8326 25.9546 45.2086 27.6522 45.2275 30.4438L45.2463 37.7624H43.9811L43.9433 24.9549H45.2086V26.8977C45.945 25.7471 47.2481 24.7474 49.4764 24.7285C52.4601 24.7474 54.4618 26.7657 54.4618 29.9157Z" fill="#192040"/>
<path d="M69.3425 31.2738C69.3614 35.0085 66.4721 37.8945 62.7708 37.8945C59.0317 37.9133 56.1425 35.0463 56.1425 31.3115C56.1236 27.6333 58.994 24.7285 62.733 24.7097C66.4154 24.6908 69.3236 27.5768 69.3425 31.2738ZM57.3888 31.3304C57.3888 34.3483 59.6927 36.7061 62.7708 36.6873C65.83 36.6873 68.0961 34.3106 68.0772 31.2926C68.0772 28.2181 65.7734 25.898 62.733 25.898C59.6549 25.9169 57.3888 28.2558 57.3888 31.3304Z" fill="#192040"/>
<path d="M26.8721 53.4182L26.891 60.4161H25.6446L25.588 43.1571H26.8343V45.6658C27.8729 44.0436 29.7236 42.9496 32.1785 42.9307C35.8609 42.9119 38.7313 45.7978 38.7313 49.4948C38.7502 53.2296 35.8987 56.1155 32.2163 56.1155C29.7802 56.1344 27.9296 55.0404 26.8721 53.4182ZM26.7777 49.5514C26.7777 52.6071 29.1193 54.9272 32.1596 54.9083C35.2378 54.9083 37.5039 52.5317 37.5039 49.5137C37.5039 46.4391 35.2 44.1191 32.1219 44.1191C29.1004 44.1568 26.7777 46.4957 26.7777 49.5514Z" fill="#192040"/>
<path d="M45.9451 44.2888C43.4901 44.2888 41.6772 46.1751 41.6772 48.9667L41.6961 55.9269H40.4498L40.412 43.1193H41.6584V45.496C42.1493 44.5529 43.5468 42.9119 45.9262 42.893L45.9451 44.2888Z" fill="#192040"/>
<path d="M47.588 39.7241V38.366H48.8532V39.7241H47.588ZM47.6446 55.908L47.6069 43.1005H48.8721L48.9099 55.908H47.6446Z" fill="#192040"/>
<path d="M61.43 48.0236L61.4489 55.8514H60.2026L60.1837 48.1745C60.1837 45.5903 58.7674 44.0625 56.3313 44.0625C53.8008 44.0625 52.1768 45.7601 52.1957 48.5517L52.2146 55.8703H50.9682L50.9305 43.0628H52.1768V45.0056C52.9133 43.855 54.2163 42.8553 56.4446 42.8364C59.4094 42.8553 61.4111 44.8735 61.43 48.0236Z" fill="#192040"/>
<path d="M69.1536 43.025V44.1568L65.5845 44.1756L65.6034 51.9658C65.6034 54.1161 67.0386 54.6443 68.1717 54.6443H69.1536V55.8514H68.1528C66.4154 55.8514 64.3759 54.9083 64.3759 51.9658L64.3571 44.1756H62.4309V43.0439H64.3571L64.3382 39.328H65.5657L65.5845 43.0439L69.1536 43.025Z" fill="#192040"/>
<defs>
<linearGradient id="paint0_linear_2042_3254" x1="19.6467" y1="9.3001" x2="56.1662" y2="67.402" gradientUnits="userSpaceOnUse">
<stop stop-color="#FE4F72"/>
<stop offset="0.54" stop-color="#FFB53D"/>
<stop offset="1" stop-color="#E7BD33"/>
</linearGradient>
</defs>
</svg>
